<svg width="128" height="128" viewBox="0 0 128 128" fill="none" xmlns="http://www.w3.org/2000/svg">
<rect x="1" y="1" width="126" height="126" rx="63" fill="#FFEBE4"/>
<mask id="mask0_796_12231" style="mask-type:alpha" maskUnits="userSpaceOnUse" x="34" y="34" width="60" height="60">
<rect x="34" y="34" width="60" height="60" fill="#D9D9D9"/>
</mask>
<g mask="url(#mask0_796_12231)">
<path d="M56.0292 88.6632L51.568 81.1444L43.0967 79.2882L43.9236 70.5675L38.1836 64L43.9236 57.4325L43.0967 48.7119L51.568 46.8557L56.0292 39.3369L64.0005 42.7213L71.9717 39.3369L76.433 46.8557L84.9042 48.7119L84.0773 57.4325L89.8173 64L84.0773 70.5675L84.9042 79.2882L76.433 81.1444L71.9717 88.6632L64.0005 85.2788L56.0292 88.6632ZM57.6255 83.875L64.0005 81.1732L70.4523 83.875L74.0005 77.875L80.8755 76.2982L80.2505 69.25L84.8755 64L80.2505 58.6732L80.8755 51.625L74.0005 50.125L70.3755 44.125L64.0005 46.8269L57.5486 44.125L54.0005 50.125L47.1255 51.625L47.7505 58.6732L43.1255 64L47.7505 69.25L47.1255 76.375L54.0005 77.875L57.6255 83.875ZM61.3755 72.0094L74.6349 58.75L72.0005 56.0388L61.3755 66.6638L56.0005 61.3657L53.3661 64L61.3755 72.0094Z" fill="#FF4100"/>
</g>
</svg>
