<svg width="128" height="128" viewBox="0 0 128 128" fill="none" xmlns="http://www.w3.org/2000/svg">
<rect x="1" y="1" width="126" height="126" rx="63" fill="#F5EAE2"/>
<mask id="mask0_796_12290" style="mask-type:alpha" maskUnits="userSpaceOnUse" x="34" y="34" width="60" height="60">
<rect x="34" y="34" width="60" height="60" fill="#D9D9D9"/>
</mask>
<g mask="url(#mask0_796_12290)">
<path d="M64 87.7018C58.5929 86.2272 54.1163 83.0445 50.57 78.1537C47.0233 73.2629 45.25 67.7949 45.25 61.7499V47.3656L64 40.3462L82.75 47.3656V61.7499C82.75 67.7949 80.9767 73.2629 77.43 78.1537C73.8838 83.0445 69.4071 86.2272 64 87.7018ZM64 83.7499C68.3333 82.3749 71.9167 79.6249 74.75 75.4999C77.5833 71.3749 79 66.7916 79 61.7499V49.9374L64 44.3362L49 49.9374V61.7499C49 66.7916 50.4167 71.3749 53.25 75.4999C56.0833 79.6249 59.6667 82.3749 64 83.7499ZM59.0481 73.5674H68.9519C69.5923 73.5674 70.129 73.3508 70.5619 72.9174C70.9948 72.4845 71.2113 71.9479 71.2113 71.3074V63.9037C71.2113 63.2637 70.9948 62.727 70.5619 62.2937C70.129 61.8608 69.5923 61.6443 68.9519 61.6443H68.7356V59.1443C68.7356 57.8335 68.2781 56.7206 67.3631 55.8056C66.4481 54.8902 65.335 54.4324 64.0238 54.4324C62.7129 54.4324 61.6 54.8902 60.685 55.8056C59.77 56.7206 59.3125 57.8335 59.3125 59.1443V61.6443H59.0481C58.4077 61.6443 57.871 61.8608 57.4381 62.2937C57.0052 62.727 56.7887 63.2637 56.7887 63.9037V71.3074C56.7887 71.9479 57.0052 72.4845 57.4381 72.9174C57.871 73.3508 58.4077 73.5674 59.0481 73.5674ZM61.5238 61.6443V59.1443C61.5238 58.436 61.7633 57.8422 62.2425 57.3631C62.7217 56.8839 63.3154 56.6443 64.0238 56.6443C64.7321 56.6443 65.3258 56.8839 65.805 57.3631C66.2842 57.8422 66.5238 58.436 66.5238 59.1443V61.6443H61.5238Z" fill="#624639"/>
</g>
</svg>
