<svg width="128" height="128" viewBox="0 0 128 128" fill="none" xmlns="http://www.w3.org/2000/svg">
<rect x="1" y="1" width="126" height="126" rx="63" fill="#F5EAE2"/>
<mask id="mask0_796_12295" style="mask-type:alpha" maskUnits="userSpaceOnUse" x="34" y="34" width="60" height="60">
<rect x="34" y="34" width="60" height="60" fill="#D9D9D9"/>
</mask>
<g mask="url(#mask0_796_12295)">
<path d="M74 80.25C72.6825 80.25 71.4125 80.0898 70.19 79.7694C68.9671 79.4485 67.8156 78.9885 66.7356 78.3894C68.7998 76.556 70.3983 74.391 71.5312 71.8944C72.6642 69.3973 73.2306 66.7658 73.2306 64C73.2306 61.2342 72.6642 58.6027 71.5312 56.1056C70.3983 53.609 68.7998 51.444 66.7356 49.6106C67.8156 49.0115 68.9671 48.5515 70.19 48.2306C71.4125 47.9102 72.6825 47.75 74 47.75C78.5225 47.75 82.3615 49.3277 85.5169 52.4831C88.6723 55.6385 90.25 59.4775 90.25 64C90.25 68.5225 88.6723 72.3615 85.5169 75.5169C82.3615 78.6723 78.5225 80.25 74 80.25ZM54 80.25C49.4775 80.25 45.6385 78.6723 42.4831 75.5169C39.3277 72.3615 37.75 68.5225 37.75 64C37.75 59.4775 39.3277 55.6385 42.4831 52.4831C45.6385 49.3277 49.4775 47.75 54 47.75C55.3175 47.75 56.5875 47.9102 57.81 48.2306C59.0329 48.5515 60.1844 49.0115 61.2644 49.6106C60.7485 50.0498 60.2623 50.525 59.8056 51.0363C59.349 51.5475 58.9138 52.074 58.5 52.6156C57.8429 52.2598 57.1354 51.9848 56.3775 51.7906C55.6196 51.5969 54.8271 51.5 54 51.5C50.5417 51.5 47.5938 52.7188 45.1563 55.1563C42.7188 57.5938 41.5 60.5417 41.5 64C41.5 67.4583 42.7188 70.4063 45.1563 72.8438C47.5938 75.2813 50.5417 76.5 54 76.5C54.8271 76.5 55.6196 76.4031 56.3775 76.2094C57.1354 76.0152 57.8429 75.7402 58.5 75.3844C58.9138 75.926 59.349 76.4525 59.8056 76.9638C60.2623 77.475 60.7485 77.9502 61.2644 78.3894C60.1844 78.9885 59.0329 79.4485 57.81 79.7694C56.5875 80.0898 55.3175 80.25 54 80.25ZM64 76.74C62.0258 75.2275 60.4906 73.3525 59.3944 71.115C58.2981 68.8779 57.75 66.5062 57.75 64C57.75 61.4938 58.2981 59.1221 59.3944 56.885C60.4906 54.6475 62.0258 52.7725 64 51.26C65.9742 52.7725 67.5094 54.6475 68.6056 56.885C69.7019 59.1221 70.25 61.4938 70.25 64C70.25 66.5062 69.7019 68.8779 68.6056 71.115C67.5094 73.3525 65.9742 75.2275 64 76.74Z" fill="#624639"/>
</g>
</svg>
